<svg width="28" height="15" viewBox="0 0 28 15" fill="none" xmlns="http://www.w3.org/2000/svg">
<path d="M8.04074 14.2908C8.13447 14.1978 8.20887 14.0872 8.25964 13.9654C8.3104 13.8435 8.33654 13.7128 8.33654 13.5808C8.33654 13.4488 8.3104 13.3181 8.25964 13.1962C8.20887 13.0744 8.13447 12.9638 8.04074 12.8708L3.44074 8.27081H26.9807C27.246 8.27081 27.5003 8.16545 27.6879 7.97792C27.8754 7.79038 27.9807 7.53603 27.9807 7.27081C27.9807 7.00559 27.8754 6.75124 27.6879 6.5637C27.5003 6.37617 27.246 6.27081 26.9807 6.27081H3.46074L8.04074 1.70081C8.22699 1.51345 8.33154 1.26 8.33154 0.995811C8.33154 0.731625 8.22699 0.478174 8.04074 0.290811C7.85338 0.104561 7.59993 1.89892e-05 7.33574 1.89892e-05C7.07156 1.89892e-05 6.81811 0.104561 6.63074 0.290811L0.270744 6.65081C0.185142 6.73294 0.117031 6.83153 0.0705011 6.94065C0.0239713 7.04978 -1.3591e-05 7.16718 -1.3591e-05 7.28581C-1.3591e-05 7.40444 0.0239713 7.52184 0.0705011 7.63097C0.117031 7.74009 0.185142 7.83868 0.270744 7.92081L6.62074 14.2908C6.71371 14.3845 6.82431 14.4589 6.94617 14.5097C7.06803 14.5605 7.19873 14.5866 7.33075 14.5866C7.46276 14.5866 7.59346 14.5605 7.71532 14.5097C7.83718 14.4589 7.94778 14.3845 8.04074 14.2908Z" fill="white"/>
</svg>
