<svg width="21" height="23" viewBox="0 0 21 23" fill="none" xmlns="http://www.w3.org/2000/svg">
<path d="M0.499999 4.16667H20.5M13.2273 9.66667V17M7.77273 9.66667V17M2.31818 4.16667V21.5833C2.31818 21.8264 2.41396 22.0596 2.58445 22.2315C2.75493 22.4034 2.98617 22.5 3.22727 22.5H17.7727C18.0138 22.5 18.2451 22.4034 18.4156 22.2315C18.586 22.0596 18.6818 21.8264 18.6818 21.5833V4.16667M5.95455 4.16667V2.33333C5.95455 1.8471 6.1461 1.38079 6.48708 1.03697C6.82805 0.693154 7.29052 0.5 7.77273 0.5H13.2273C13.7095 0.5 14.1719 0.693154 14.5129 1.03697C14.8539 1.38079 15.0455 1.8471 15.0455 2.33333V4.16667" stroke="white" stroke-linecap="round" stroke-linejoin="round"/>
</svg>
