<svg width="17" height="22" viewBox="0 0 17 22" fill="none" xmlns="http://www.w3.org/2000/svg">
<path d="M1.7715 2.69043C1.7896 3.16979 2.19853 3.54167 2.67799 3.54167H3.1875C3.28143 3.54167 3.37151 3.57898 3.43793 3.6454C3.50435 3.71182 3.54167 3.8019 3.54167 3.89583V9.96324C3.54167 10.0273 3.55907 10.0902 3.59201 10.1452C3.62496 10.2002 3.67221 10.2453 3.72873 10.2755C3.78525 10.3057 3.84892 10.3201 3.91295 10.317C3.97698 10.3139 4.03897 10.2935 4.09231 10.2579L5.27376 9.47028C5.39012 9.39272 5.52683 9.35133 5.66667 9.35133C5.80651 9.35133 5.94322 9.39272 6.05957 9.47028L7.24103 10.2579C7.29436 10.2935 7.35635 10.3139 7.42038 10.317C7.48441 10.3201 7.54808 10.3057 7.6046 10.2755C7.66113 10.2453 7.70838 10.2002 7.74132 10.1452C7.77427 10.0902 7.79167 10.0273 7.79167 9.96324V3.89583C7.79167 3.8019 7.82898 3.71182 7.8954 3.6454C7.96182 3.57898 8.0519 3.54167 8.14583 3.54167H16.2917C16.4795 3.54167 16.6597 3.61629 16.7925 3.74913C16.9254 3.88197 17 4.06214 17 4.25V20.5417C17 20.7295 16.9254 20.9097 16.7925 21.0425C16.6597 21.1754 16.4795 21.25 16.2917 21.25H2.65625C1.95177 21.25 1.27614 20.9701 0.777998 20.472C0.279854 19.9739 0 19.2982 0 18.5938V2.65625C0 2.65204 0.000486976 2.64797 0.000619789 2.64381C0.00503691 1.95322 0.282522 1.29243 0.772482 0.805729C1.28216 0.293176 1.97416 0.00345521 2.69698 0H16.2917C16.4795 0 16.6597 0.0746277 16.7925 0.207466C16.9254 0.340304 17 0.520472 17 0.708333V1.0625C17 1.25036 16.9254 1.43053 16.7925 1.56337C16.6597 1.69621 16.4795 1.77083 16.2917 1.77083H2.65625C2.53714 1.77096 2.41927 1.7951 2.30969 1.8418C2.20012 1.88851 2.10108 1.95682 2.0185 2.04265C1.93591 2.12849 1.87147 2.23009 1.82904 2.34139C1.7866 2.45269 1.76703 2.5714 1.7715 2.69043Z" fill="white"/>
</svg>
