<svg width="22" height="22" viewBox="0 0 22 22" fill="none" xmlns="http://www.w3.org/2000/svg">
<path d="M11 16.3846C13.9738 16.3846 16.3846 13.9738 16.3846 11C16.3846 8.02616 13.9738 5.61538 11 5.61538C8.02616 5.61538 5.61538 8.02616 5.61538 11C5.61538 13.9738 8.02616 16.3846 11 16.3846Z" fill="white"/>
<path d="M11 1V3.30769M11 18.6923V21M21 11H18.6923M3.30769 11H1M18.0708 3.92923L16.4392 5.56077M5.56077 16.4392L3.92923 18.0708M18.0708 18.0708L16.4392 16.4392M5.56077 5.56077L3.92923 3.92923M16.3846 11C16.3846 13.9738 13.9738 16.3846 11 16.3846C8.02616 16.3846 5.61538 13.9738 5.61538 11C5.61538 8.02616 8.02616 5.61538 11 5.61538C13.9738 5.61538 16.3846 8.02616 16.3846 11Z" stroke="white" stroke-width="2" stroke-miterlimit="10" stroke-linecap="round"/>
</svg>
