<svg width="20" height="21" viewBox="0 0 20 21" fill="none" xmlns="http://www.w3.org/2000/svg">
<path d="M14.902 4.72973C14.902 7.34189 12.7073 9.45946 10 9.45946C7.29272 9.45946 5.09804 7.34189 5.09804 4.72973C5.09804 2.11757 7.29272 0 10 0C12.7073 0 14.902 2.11757 14.902 4.72973Z" fill="white"/>
<path d="M0 21C0 19.7329 0.258658 18.4783 0.761205 17.3076C1.26375 16.137 2.00035 15.0733 2.92893 14.1774C3.85752 13.2814 4.95991 12.5707 6.17317 12.0858C7.38642 11.6009 8.68678 11.3514 10 11.3514C11.3132 11.3514 12.6136 11.6009 13.8268 12.0858C15.0401 12.5707 16.1425 13.2814 17.0711 14.1774C17.9997 15.0733 18.7362 16.137 19.2388 17.3076C19.7413 18.4783 20 19.7329 20 21H0Z" fill="white"/>
</svg>
